<svg width="29" height="30" viewBox="0 0 29 30" fill="none" xmlns="http://www.w3.org/2000/svg">
<path d="M20.8182 10.6433H16.9563V9.6585H20.8197V10.6449L20.8182 10.6433ZM14.3848 14.6856C14.6346 15.0814 14.7579 15.5627 14.7579 16.128C14.7579 16.7138 14.6191 17.2363 14.3324 17.7002C14.1414 18.0261 13.886 18.3074 13.5828 18.5258C13.2796 18.7442 12.9352 18.895 12.5718 18.9685C12.1257 19.0601 11.6716 19.1047 11.2167 19.1015H6.89697V9.25H11.5296C12.6967 9.269 13.5246 9.61733 14.0133 10.2998C14.3062 10.7178 14.4526 11.2197 14.4526 11.8039C14.4526 12.4056 14.3062 12.8885 14.0086 13.2543C13.8452 13.4601 13.6016 13.6469 13.2794 13.8148C13.7666 13.9984 14.1366 14.2866 14.3848 14.6856ZM9.10926 13.1339H11.1396C11.5558 13.1339 11.8935 13.0532 12.1525 12.8901C12.413 12.727 12.5425 12.4388 12.5425 12.024C12.5425 11.5648 12.3714 11.2608 12.0276 11.1152C11.6603 11.0022 11.2778 10.9498 10.8945 10.96H9.10926V13.1339ZM12.7383 15.9871C12.7383 15.4757 12.5333 15.1226 12.1278 14.9326C11.8996 14.8249 11.579 14.7695 11.1689 14.7648H9.10926V17.3899H11.1365C11.5528 17.3899 11.8765 17.3345 12.1078 17.2173C12.5271 17.0036 12.7383 16.5951 12.7383 15.9871ZM22.2519 14.3848C22.2982 14.7078 22.3198 15.1748 22.312 15.786H17.3093C17.3371 16.4953 17.5745 16.9909 18.0278 17.2743C18.2991 17.4532 18.629 17.5403 19.0175 17.5403C19.4261 17.5403 19.7575 17.4343 20.015 17.2158C20.1683 17.0813 20.2936 16.9166 20.3834 16.7313H22.218C22.1687 17.1508 21.9482 17.5752 21.552 18.0074C20.9353 18.693 20.0751 19.0366 18.9666 19.0366C18.0856 19.0483 17.2288 18.7411 16.5462 18.1689C15.8494 17.5894 15.4979 16.6489 15.4979 15.3427C15.4979 14.1187 15.8139 13.1814 16.4445 12.5291C17.0766 11.8752 17.8952 11.5506 18.9034 11.5506C19.5 11.5506 20.0381 11.6598 20.5191 11.8799C20.997 12.1016 21.3932 12.4483 21.7046 12.9249C21.9868 13.3461 22.1671 13.8306 22.2519 14.3848ZM20.4482 14.5684C20.4143 14.0776 20.2539 13.7071 19.9672 13.4537C19.6712 13.1949 19.292 13.0583 18.9034 13.0706C18.4409 13.0706 18.0848 13.2083 17.8304 13.4759C17.576 13.7451 17.4173 14.1093 17.3525 14.5684H20.4482Z" fill="#F3F1E4"/>
<path d="M14.1493 0C6.34799 0 0 6.51775 0 14.5308C0 22.5439 6.34799 29.0616 14.1493 29.0616C21.9506 29.0616 28.2986 22.5439 28.2986 14.5308C28.2986 6.51775 21.9506 0 14.1493 0ZM14.1493 28.0938C6.86773 28.0938 0.944169 22.0092 0.944169 14.5308C0.944169 7.05244 6.86773 0.967875 14.1493 0.967875C21.4309 0.967875 27.3544 7.05244 27.3544 14.5308C27.3544 22.0092 21.4309 28.0938 14.1493 28.0938Z" fill="#F3F1E4"/>
</svg>
