<svg width="28" height="30" viewBox="0 0 28 30" fill="none" xmlns="http://www.w3.org/2000/svg">
<path d="M14 0C6.27966 0 0 6.51775 0 14.5308C0 22.5439 6.27966 29.0616 14 29.0616C21.7203 29.0616 28 22.5439 28 14.5308C28 6.51775 21.7203 0 14 0ZM14 28.0938C6.79481 28.0938 0.932518 22.0092 0.932518 14.5308C0.932518 7.05244 6.79481 0.967875 14 0.967875C21.2052 0.967875 27.0675 7.05244 27.0675 14.5308C27.0675 22.0092 21.2052 28.0938 14 28.0938Z" fill="#F3F1E4"/>
<path d="M14.9776 7.21008C14.7689 7.07038 14.5234 6.99723 14.2731 7.00008C14.0228 7.00293 13.779 7.08166 13.5735 7.22608L7.28091 11.6565C7.11541 11.7729 6.98018 11.9279 6.88674 12.1084C6.7933 12.2889 6.74442 12.4896 6.74426 12.6934V17.4646C6.74438 17.6736 6.79578 17.8794 6.89385 18.0634C6.99193 18.2474 7.13362 18.404 7.30624 18.5191L13.7001 22.7911C13.9045 22.9274 14.1439 23 14.3887 23C14.6335 23 14.873 22.9274 15.0773 22.7911L21.5994 18.4358C21.7715 18.3207 21.9128 18.1643 22.0105 17.9806C22.1083 17.7969 22.1596 17.5916 22.1598 17.383V12.695C22.1601 12.4858 22.1091 12.2799 22.0113 12.0956C21.9135 11.9113 21.772 11.7544 21.5994 11.6389L14.976 7.21008H14.9776ZM19.8486 12.3782L17.4376 14.015L15.1771 12.3542L15.1628 9.08531L19.8486 12.3798V12.3782ZM13.5276 9.09011V12.2886L11.2116 13.9238L8.90035 12.3574L13.5276 9.08851V9.09011ZM8.26872 13.9334L9.7631 14.9462L8.26872 16.0038V13.9334ZM13.5671 20.7511L8.90193 17.5894L11.2322 15.943L13.5671 17.527V20.7511ZM12.6806 14.9206L14.1924 13.8534L15.9496 15.0214L14.3919 16.0806L12.6822 14.9206H12.6806ZM15.2151 20.7511V17.5254L17.4471 16.015L19.8486 17.6102L15.2151 20.7511ZM20.5135 16.0582L18.9304 15.007L20.5135 13.9334V16.0582Z" fill="#F3F1E4"/>
</svg>
