<svg width="29" height="29" viewBox="0 0 29 29" fill="none" xmlns="http://www.w3.org/2000/svg">
<path d="M14.2857 0C6.39571 0 0 6.39571 0 14.2857C0 22.1757 6.39571 28.5714 14.2857 28.5714C22.1757 28.5714 28.5714 22.1757 28.5714 14.2857C28.5714 6.39571 22.1757 0 14.2857 0ZM14.2857 0.646623C21.3164 0.646623 27.9248 7.255 27.9248 14.2857C27.9248 21.3164 21.3164 27.9248 14.2857 27.9248C7.255 27.9248 0.646623 21.3164 0.646623 14.2857C0.646623 7.255 7.255 0.646623 14.2857 0.646623ZM7.96714 5.28357C7.605 6.33786 7.47857 7.48143 7.80357 8.48071C7.40866 8.91973 7.09886 9.42838 6.89 9.98071C6.31 11.8136 6.45143 14.1579 7.72143 15.575C8.16786 16.065 8.77357 16.4664 9.535 16.7814C10.2964 17.0964 11.2764 17.2979 12.4729 17.3843C11.6693 17.76 11.1029 17.99 10.9057 18.82C10.0093 19.4186 8.92 19.2764 8.12929 18.6257C7.505 18.1686 7.22143 17.3607 6.53 17.06C6.48643 17.0157 6.35071 16.985 6.12286 16.9621C5.89428 16.94 5.71429 17.005 5.58357 17.1571C5.51857 17.2214 5.52286 17.2914 5.59929 17.3679C6.12214 17.7943 6.62714 18.2457 6.92286 18.7864C7.20571 19.3736 7.59571 19.7279 7.90143 20C8.74714 20.5714 9.855 20.7757 10.8479 20.4129C10.7321 21.1121 10.9714 22.37 10.7421 22.9936C10.6518 23.1716 10.5238 23.3278 10.3671 23.4514C10.2221 23.5936 9.77071 23.7707 9.86214 23.9886C9.90571 24.0864 10.0571 24.1464 10.3186 24.1686C10.8943 24.1536 11.5464 23.92 11.8836 23.4671C12.0036 23.3036 12.1429 23.0914 12.1429 22.8307V20.1579C12.1429 19.8529 12.2543 19.6371 12.385 19.505C12.5157 19.375 12.6343 19.275 12.8571 19.2443V22.7679C12.8571 23.0721 12.4836 23.9207 12.4386 24.0071C12.3393 24.1757 12.1171 24.3293 12.1129 24.5279C12.1129 24.5943 12.1364 24.6321 12.2129 24.6414C12.4806 24.6307 12.7405 24.5477 12.9648 24.4012C13.1892 24.2547 13.3697 24.0501 13.4871 23.8093C13.7836 23.3593 13.8507 23.0914 13.9286 22.5714V19.2857H14.6429V22.5714C14.6429 23.0057 14.5714 23.4193 14.7679 23.8086C14.9636 24.2007 15.5636 24.4514 16.02 24.5607C16.26 24.6264 16.38 24.6514 16.4664 24.6407C16.5536 24.63 16.5707 24.5929 16.56 24.5271C16.5086 24.3307 16.2293 24.1607 16.1136 24.0064C15.9614 23.81 15.7143 23.3971 15.7143 22.7664V19.2436C15.9486 19.2964 16.045 19.375 16.1871 19.5043C16.3279 19.6357 16.4286 19.8529 16.4286 20.1579V22.8307C16.4286 23.0914 16.6171 23.3036 16.7371 23.4671C17.1014 23.93 17.7136 24.1657 18.2871 24.1686C18.5479 24.1464 18.7321 24.0864 18.7764 23.9886C18.8207 23.8907 18.8036 23.81 18.695 23.7443C18.5864 23.6786 18.4586 23.5807 18.2943 23.4514C18.1383 23.328 18.0115 23.1716 17.9229 22.9936C17.825 21.8729 17.9221 20.6707 17.8436 19.5364C17.6871 18.2993 17.2114 17.8907 16.2614 17.4164C17.3943 17.3307 18.325 17.1229 19.0529 16.7964C21.2336 15.7379 21.8357 14.1 21.8457 11.9043C21.8107 10.4907 21.4036 9.25928 20.4729 8.315C20.6045 7.8049 20.6435 7.2753 20.5879 6.75143C20.5429 6.24819 20.4273 5.7538 20.2443 5.28286C19.4393 5.32714 18.7643 5.48857 18.22 5.77143C17.6757 6.05428 17.2836 6.29357 17.0443 6.49C15.1164 6.05214 13.0514 6.05 11.2014 6.555C10.2809 5.80668 9.15084 5.36244 7.96714 5.28357Z" fill="#F3F1E4"/>
</svg>
