<svg width="28" height="30" viewBox="0 0 28 30" fill="none" xmlns="http://www.w3.org/2000/svg">
<path d="M17.0691 10.8623C16.4771 10.8623 16.0388 11.0173 15.6956 11.213C15.6406 11.01 15.4599 10.8614 15.2468 10.9058H12.6414C12.3838 10.8614 12.1751 11.078 12.2546 11.3589V21.3277C12.1751 21.5814 12.3838 21.7989 12.6414 21.7808H15.2468C15.5044 21.7989 15.7131 21.5814 15.7131 21.3141L15.7122 15.2893C15.7114 15.2866 15.7018 14.9984 15.8773 14.8C16.0178 14.6423 16.2597 14.5616 16.5941 14.5616C17.1512 14.5616 17.3991 14.7981 17.4917 15.3274V21.3141C17.4 21.5814 17.6087 21.7989 17.8663 21.7808H20.6123C20.8699 21.7989 21.0786 21.5814 20.986 21.3141V15.1262C21.0777 11.9797 18.9184 10.8623 17.0691 10.8623ZM20.1452 20.8746H18.3325V15.3274C18.3325 14.2571 17.6663 13.5937 16.595 13.5937C15.989 13.5937 15.5175 13.7786 15.1927 14.1429C14.7413 14.6504 14.7762 15.2939 14.8731 15.4371V20.8746H13.1076V11.8302H14.7806V12.1347C14.7799 12.2254 14.8039 12.3145 14.8498 12.3917C14.8957 12.4688 14.9616 12.531 15.0401 12.5711C15.1185 12.6111 15.2062 12.6274 15.2931 12.618C15.3801 12.6086 15.4627 12.574 15.5315 12.518L15.6537 12.4201C16.0074 12.1311 16.3732 11.8311 17.07 11.8311C17.7912 11.8311 20.1461 12.0694 20.1461 15.1271V20.8746H20.1452Z" fill="#F3F1E4"/>
<path d="M9.63425 6.34375C8.65458 6.34375 7.85828 7.17025 7.85828 8.18706C7.85828 9.20387 8.65458 10.0304 9.63425 10.0304C10.614 10.0304 11.4103 9.20387 11.4103 8.18706C11.4103 7.17025 10.614 6.34375 9.63425 6.34375ZM9.63425 9.0625C9.16974 9.0625 8.7908 8.66919 8.7908 8.18706C8.7908 7.70494 9.16974 7.31163 9.63425 7.31163C10.0988 7.31163 10.4777 7.70494 10.4777 8.18706C10.4777 8.66919 10.0988 9.0625 9.63425 9.0625Z" fill="#F3F1E4"/>
<path d="M10.8811 10.8614H8.2896C8.03203 10.8614 7.82334 11.078 7.88796 11.359V21.3277C7.82334 21.5815 8.03203 21.799 8.2896 21.7808H10.8811C11.1387 21.799 11.3474 21.5815 11.3474 21.3141V11.3454C11.3474 11.217 11.2983 11.0939 11.2108 11.0032C11.1234 10.9124 11.0048 10.8614 10.8811 10.8614ZM10.5074 20.8746H8.75586V11.8302H10.5074V20.8746Z" fill="#F3F1E4"/>
<path d="M14 0C6.27966 0 0 6.51775 0 14.5308C0 22.5439 6.27966 29.0616 14 29.0616C21.7203 29.0616 28 22.5439 28 14.5308C28 6.51775 21.7203 0 14 0ZM14 28.0938C6.79481 28.0938 0.932518 22.0092 0.932518 14.5308C0.932518 7.05244 6.79481 0.967875 14 0.967875C21.2052 0.967875 27.0675 7.05244 27.0675 14.5308C27.0675 22.0092 21.2052 28.0938 14 28.0938Z" fill="#F3F1E4"/>
</svg>
