<svg width="29" height="30" viewBox="0 0 29 30" fill="none" xmlns="http://www.w3.org/2000/svg">
<path d="M14.0317 0C6.29524 0 0 6.51775 0 14.5308C0 22.5439 6.29524 29.0616 14.0317 29.0616C21.7682 29.0616 28.0634 22.5439 28.0634 14.5308C28.0634 6.51775 21.7682 0 14.0317 0ZM14.0317 28.0938C6.81066 28.0938 0.936323 22.0092 0.936323 14.5308C0.936323 7.05244 6.81066 0.967875 14.0317 0.967875C21.2528 0.967875 27.1271 7.05244 27.1271 14.5308C27.1271 22.0092 21.2528 28.0938 14.0317 28.0938Z" fill="#F3F1E4"/>
<path d="M21.7271 10.0413C21.8241 9.85518 21.9041 9.66008 21.966 9.45853C21.9946 9.36504 21.9952 9.26475 21.9676 9.17092C21.9401 9.07708 21.8857 8.99409 21.8117 8.93293C21.7376 8.87176 21.6474 8.83529 21.553 8.82833C21.4585 8.82137 21.3642 8.84425 21.2825 8.89394C20.8342 9.16981 20.3488 9.37534 19.8422 9.50384C19.2272 8.92908 18.4286 8.61044 17.6003 8.60938C17.1502 8.60972 16.7049 8.70419 16.291 8.8871C15.877 9.07 15.503 9.33759 15.1914 9.67381C14.8797 10.01 14.6368 10.408 14.4773 10.8438C14.3177 11.2795 14.2447 11.7442 14.2627 12.2099C12.2947 11.9533 10.4976 10.922 9.24425 9.32983C9.19623 9.26952 9.13486 9.2221 9.06535 9.1916C8.99584 9.16111 8.92026 9.14843 8.84501 9.15466C8.76976 9.16089 8.69707 9.18583 8.63313 9.22737C8.56918 9.26892 8.51586 9.32583 8.47769 9.39328C8.19069 9.90343 8.03469 10.4812 8.02458 11.0716C8.01447 11.6619 8.15059 12.2451 8.41994 12.7654C8.35388 12.777 8.29041 12.8009 8.23267 12.8361C8.16192 12.8829 8.10367 12.9473 8.06329 13.0235C8.02292 13.0996 8.00172 13.1851 8.00166 13.272C8.00166 14.3006 8.44357 15.2449 9.15587 15.8866L9.12524 15.9183C9.07147 15.9813 9.03447 16.0577 9.0179 16.14C9.00133 16.2223 9.00575 16.3077 9.03074 16.3877C9.17927 16.8676 9.42728 17.3081 9.7574 17.6783C10.0875 18.0485 10.4918 18.3395 10.9419 18.531C10.0174 18.998 8.98292 19.1802 7.9614 19.0557C7.8564 19.0446 7.75081 19.0699 7.66118 19.1277C7.57155 19.1854 7.50295 19.2723 7.46611 19.3747C7.43074 19.4779 7.43008 19.5905 7.46423 19.6941C7.49838 19.7977 7.56534 19.8864 7.65425 19.9457C9.043 20.8687 10.6586 21.3591 12.3087 21.3585C17.7166 21.3585 20.9491 16.8091 20.9491 12.4111L20.9483 12.2625C21.4724 11.8387 21.9276 11.3308 22.2967 10.7581C22.3526 10.6715 22.3801 10.5686 22.3751 10.4646C22.3702 10.3605 22.3329 10.2609 22.269 10.1805C22.2051 10.1001 22.1179 10.0431 22.0203 10.018C21.9227 9.99295 21.8199 10.0011 21.7271 10.0413ZM20.2001 11.6317C20.1366 11.679 20.0855 11.742 20.0516 11.815C20.0177 11.888 20.0019 11.9686 20.0058 12.0495C20.0111 12.1691 20.0137 12.2906 20.0137 12.4102C20.0137 16.3324 17.1321 20.3897 12.3096 20.3897C11.4495 20.3901 10.5955 20.2406 9.78329 19.9475C10.756 19.7544 11.6698 19.3224 12.4479 18.6878C12.5236 18.6259 12.579 18.5414 12.6066 18.4456C12.6342 18.3499 12.6325 18.2477 12.6019 18.153C12.5713 18.0583 12.5131 17.9757 12.4354 17.9165C12.3577 17.8573 12.2643 17.8244 12.1678 17.8223C11.7905 17.8149 11.4202 17.7157 11.0867 17.5327C10.7532 17.3498 10.4659 17.0883 10.2479 16.7693C10.4693 16.7538 10.6863 16.7158 10.8972 16.6569C10.9993 16.6286 11.0891 16.5653 11.152 16.4774C11.2148 16.3894 11.2471 16.282 11.2434 16.1727C11.2398 16.0633 11.2004 15.9584 11.1318 15.8752C11.0633 15.792 10.9694 15.7353 10.8657 15.7144C10.4396 15.6246 10.045 15.4165 9.7243 15.1124C9.40354 14.8083 9.16864 14.4197 9.04474 13.988C9.2775 14.0487 9.5164 14.084 9.75529 14.0922C9.96093 14.0913 10.1517 13.9608 10.2156 13.756C10.2794 13.5512 10.2042 13.3255 10.03 13.2059C9.61832 12.9218 9.30129 12.513 9.12228 12.0353C8.94326 11.5576 8.91099 11.0344 9.02986 10.537C10.5499 12.1522 12.6024 13.114 14.7773 13.2303C14.9313 13.2313 15.0661 13.1742 15.1597 13.0573C15.2533 12.9403 15.2892 12.7854 15.256 12.6368C15.1363 12.103 15.1898 11.5432 15.4083 11.0441C15.6267 10.545 15.9979 10.1344 16.4644 9.8758C16.9309 9.61721 17.4667 9.52507 17.9889 9.61362C18.5111 9.70218 18.9905 9.9665 19.353 10.3657C19.4073 10.4257 19.4755 10.4704 19.5512 10.4957C19.6268 10.5209 19.7074 10.5257 19.7853 10.5098C19.9297 10.4799 20.0723 10.4454 20.2132 10.4056C20.1497 10.4548 20.0837 10.5005 20.0154 10.5424C19.9247 10.6 19.8556 10.6878 19.8195 10.7915C19.7835 10.8952 19.7826 11.0085 19.817 11.1128C19.8515 11.2171 19.9192 11.3061 20.009 11.3651C20.0989 11.4242 20.2054 11.4498 20.3112 11.4378L20.4705 11.4169C20.3828 11.4918 20.2926 11.5634 20.2001 11.6317Z" fill="#F3F1E4"/>
</svg>
